<svg id="icon-add-new" width="512" height="512" fill="#000" viewBox="0 0 512 512"><path d="m484 498c0 0-456 0-456 0-15 0-28-13-28-29 0 0 0-426 0-426 0-16 13-29 28-29 0 0 456 0 456 0 15 0 28 13 28 29 0 0 0 426 0 426 0 16-13 29-28 29z m-114-256c0 0-100 0-100 0 0 0 0-100 0-100 0-8-6-14-14-14-8 0-14 6-14 14 0 0 0 100 0 100 0 0-100 0-100 0-8 0-14 6-14 14 0 8 6 14 14 14 0 0 100 0 100 0 0 0 0 100 0 100 0 8 6 14 14 14 8 0 14-6 14-14 0 0 0-100 0-100 0 0 100 0 100 0 8 0 14-6 14-14 0-8-6-14-14-14z"/></svg>