<svg id="icon-field-list" width="512" height="512" fill="#000" viewBox="0 0 512 512"><path d="m512 405c0 7-4 11-11 11l-384 0c-6 0-10-4-10-11l0-42c0-7 4-11 10-11l384 0c7 0 11 4 11 11z m-448 0c0 7-4 11-11 11l-42 0c-7 0-11-4-11-11l0-42c0-7 4-11 11-11l42 0c7 0 11 4 11 11z m448-128c0 7-4 11-11 11l-384 0c-6 0-10-4-10-11l0-42c0-7 4-11 10-11l384 0c7 0 11 4 11 11z m-448 0c0 7-4 11-11 11l-42 0c-7 0-11-4-11-11l0-42c0-7 4-11 11-11l42 0c7 0 11 4 11 11z m448-128c0 7-4 11-11 11l-384 0c-6 0-10-4-10-11l0-42c0-7 4-11 10-11l384 0c7 0 11 4 11 11z m-448 0c0 7-4 11-11 11l-42 0c-7 0-11-4-11-11l0-42c0-7 4-11 11-11l42 0c7 0 11 4 11 11z"/></svg>