<svg xmlns="http://www.w3.org/2000/svg" xmlns:xlink="http://www.w3.org/1999/xlink" width="11" height="11" version="1.1" viewBox="0 0 11 11"><g id="Page-1" fill="none" fill-rule="evenodd" stroke="none" stroke-width="1"><path id="exp-circle" fill="#8A96A8" fill-rule="nonzero" d="M3.00000458,6.1000412 L8.00000458,6.09999542 L7.99999542,5.09999542 L2.99999542,5.1000412 L3.00000458,6.1000412 Z M5.5,11 C2.46243388,11 0,8.53756612 0,5.5 C0,2.46243388 2.46243388,0 5.5,0 C8.53756612,0 11,2.46243388 11,5.5 C11,8.53756612 8.53756612,11 5.5,11 Z M5.5,10 C7.98528137,10 10,7.98528137 10,5.5 C10,3.01471863 7.98528137,1 5.5,1 C3.01471863,1 1,3.01471863 1,5.5 C1,7.98528137 3.01471863,10 5.5,10 Z"/></g></svg>